# xmcd
#
# Track frame offsets: 
#        150
#        18861
#        36361
#        50784
#        69031
#        85234
#        103735
#        116855
#        133915
#        150709
#        169821
#        187230
#        204024
#        222593
#        240193
#        258586
#        275386
#
# Disc length: 3903 seconds
#
# Revision: 0
# Processed by: cddbd v1.5.2PL0 Copyright (c) Steve Scherf et al.
# Submitted via: ExactAudioCopy v1.3
#
DISCID=f60f3d11
DTITLE=黎瑞恩 - 《Dreams Come True》
DYEAR=2002
DGENRE=
TTITLE0=云上的日子
TTITLE1=一人有一个理想
TTITLE2=今夜来世
TTITLE3=你最了不起
TTITLE4=音乐派对
TTITLE5=花瓣占卜
TTITLE6=踢走钢盔
TTITLE7=恩爱对象
TTITLE8=我要忘记你
TTITLE9=我从一个人
TTITLE10=一人有一个梦想
TTITLE11=爱你这样傻
TTITLE12=一见如故
TTITLE13=爱你一定快乐
TTITLE14=旧爱新欢
TTITLE15=长流不息
TTITLE16=你从未说过爱我
EXTD=
EXTT0=
EXTT1=
EXTT2=
EXTT3=
EXTT4=
EXTT5=
EXTT6=
EXTT7=
EXTT8=
EXTT9=
EXTT10=
EXTT11=
EXTT12=
EXTT13=
EXTT14=
EXTT15=
EXTT16=
PLAYORDER=
